<?xml version="1.0" standalone="no"?>
<!DOCTYPE svg PUBLIC "-//W3C//DTD SVG 20010904//EN"
 "http://www.w3.org/TR/2001/REC-SVG-20010904/DTD/svg10.dtd">
<svg version="1.0" xmlns="http://www.w3.org/2000/svg"
 width="475.000000pt" height="95.000000pt" viewBox="0 0 475.000000 95.000000"
 preserveAspectRatio="xMidYMid meet">

<g transform="translate(0.000000,95.000000) scale(0.100000,-0.100000)"
fill="#000000" stroke="none">
<path d="M0 475 l0 -475 2375 0 2375 0 0 475 0 475 -2375 0 -2375 0 0 -475z
m2237 405 c39 -31 89 -103 109 -161 16 -44 21 -49 48 -49 47 0 101 -18 121
-40 17 -19 16 -24 -53 -172 -75 -165 -107 -206 -188 -252 -65 -37 -102 -35
-188 8 -134 68 -246 191 -246 269 0 90 48 123 166 115 43 -3 91 -12 107 -19
25 -11 34 -9 102 27 83 44 81 38 43 141 -25 68 -56 112 -98 142 l-35 24 42 -6
c23 -3 55 -15 70 -27z m-105 4 c3 -3 -4 -15 -17 -28 -28 -28 -55 -118 -55
-185 0 -50 -1 -51 -30 -51 -26 0 -30 4 -30 28 0 46 30 154 52 190 23 37 65 62
80 46z m-1632 -100 c10 -11 11 -23 4 -42 -12 -34 -59 -38 -80 -7 -29 44 43 90
76 49z m120 0 c10 -11 11 -23 4 -42 -17 -48 -84 -38 -84 12 0 43 53 63 80 30z
m256 -11 c9 -35 -7 -58 -42 -58 -22 0 -31 6 -38 27 -12 35 6 58 45 58 23 0 30
-6 35 -27z m522 15 c7 -7 12 -21 12 -33 0 -12 -5 -26 -12 -33 -7 -7 -21 -12
-33 -12 -12 0 -26 5 -33 12 -7 7 -12 21 -12 33 0 12 5 26 12 33 7 7 21 12 33
12 12 0 26 -5 33 -12z m1329 -50 c6 -7 51 -133 101 -280 l91 -267 -33 -6 c-75
-15 -87 -7 -115 75 l-27 75 -85 3 -86 3 -30 -78 c-27 -70 -33 -78 -59 -81 -61
-5 -60 -2 53 291 l107 277 37 0 c20 0 41 -6 46 -12z m503 1 l100 -12 0 -40 c0
-41 -21 -79 -197 -347 l-43 -65 47 -8 c29 -5 73 -4 111 3 36 6 65 10 67 8 1
-2 5 -19 9 -39 6 -36 6 -36 -39 -49 -46 -13 -218 -9 -307 6 -34 6 -38 10 -38
37 0 36 28 87 149 271 50 77 91 143 91 148 0 11 -163 10 -193 -1 -21 -8 -26
-6 -31 12 -13 47 -7 66 22 73 15 3 32 7 37 9 22 7 119 4 215 -6z m680 0 l100
-12 0 -34 c0 -43 -10 -62 -137 -257 l-104 -161 28 -6 c31 -7 114 -3 168 7 l35
6 0 -40 c0 -38 -2 -41 -37 -53 -37 -12 -220 -8 -305 7 -36 6 -38 9 -38 44 0
30 18 65 93 181 51 79 105 162 120 184 15 22 27 43 27 47 0 11 -164 10 -193
-1 -29 -11 -37 0 -37 49 0 24 5 29 38 38 51 14 124 14 242 1z m417 -1 c4 -7
49 -133 100 -280 l91 -267 -32 -7 c-18 -3 -46 -4 -62 -2 -26 3 -31 10 -55 78
l-26 75 -85 3 -85 3 -30 -78 c-27 -70 -33 -78 -59 -81 -62 -5 -61 -2 53 291
l107 277 37 0 c21 0 41 -6 46 -12z m-799 -20 c9 -9 12 -84 12 -275 l0 -263
-60 0 -60 0 0 275 0 275 48 0 c26 0 53 -5 60 -12z m-2121 -120 c-4 -35 -10
-100 -13 -145 l-7 -83 87 0 88 0 -6 28 c-13 68 -17 179 -7 205 15 38 65 57
149 57 78 0 90 -8 99 -64 l6 -36 -65 0 c-82 0 -90 -9 -83 -86 11 -110 6 -104
85 -104 38 0 71 -3 73 -7 3 -5 8 -29 12 -56 l7 -47 -230 0 -230 0 -12 -29
c-24 -60 -53 -76 -147 -80 l-86 -3 7 33 c8 41 29 59 72 59 17 0 37 6 44 14 6
8 19 94 29 190 20 201 27 216 94 216 l40 0 -6 -62z m-777 -50 c0 -57 -5 -121
-10 -142 -18 -78 -79 -131 -164 -141 -149 -19 -257 91 -228 232 12 60 34 94
75 118 48 28 77 33 205 34 l122 1 0 -102z m260 92 c0 -14 -19 -195 -24 -237
l-5 -33 85 0 c46 0 84 1 84 3 1 1 7 57 14 124 7 67 19 129 26 138 7 9 28 15
52 15 l39 0 -6 -47 c-3 -27 -12 -109 -20 -183 -10 -106 -17 -137 -31 -147 -12
-9 -55 -13 -135 -13 l-117 0 -7 -29 c-13 -62 -83 -101 -182 -101 -50 0 -53 1
-53 26 0 43 17 64 54 64 67 0 74 15 93 210 15 155 20 177 40 197 23 24 93 33
93 13z m58 -412 c15 -15 15 -51 0 -66 -27 -27 -78 -7 -78 29 0 39 52 63 78 37z
m120 0 c28 -28 7 -78 -33 -78 -27 0 -45 18 -45 45 0 27 18 45 45 45 12 0 26
-5 33 -12z"/>
<path d="M2649 563 c-14 -37 -49 -135 -49 -140 0 -1 27 -3 61 -3 53 0 60 2 55
18 -3 9 -15 47 -26 85 -11 37 -23 67 -26 67 -2 0 -9 -12 -15 -27z"/>
<path d="M4249 563 c-14 -37 -49 -135 -49 -140 0 -1 27 -3 61 -3 51 0 60 3 55
15 -3 9 -15 47 -27 85 -11 39 -23 70 -25 70 -3 0 -9 -12 -15 -27z"/>
<path d="M385 558 c-36 -19 -45 -40 -45 -102 1 -67 12 -90 54 -106 42 -15 55
-13 87 19 28 28 29 34 29 115 l0 86 -52 0 c-29 0 -62 -6 -73 -12z"/>
</g>
</svg>
