<?xml version="1.0" standalone="no"?>
<!DOCTYPE svg PUBLIC "-//W3C//DTD SVG 20010904//EN"
 "http://www.w3.org/TR/2001/REC-SVG-20010904/DTD/svg10.dtd">
<svg version="1.0" xmlns="http://www.w3.org/2000/svg"
 width="512.000000pt" height="512.000000pt" viewBox="0 0 512.000000 512.000000"
 preserveAspectRatio="xMidYMid meet">

<g transform="translate(0.000000,512.000000) scale(0.100000,-0.100000)"
fill="#000000" stroke="none">
<path d="M4569 5050 c-8 -5 -106 -128 -218 -273 l-202 -264 -62 25 c-101 42
-216 40 -867 -12 -398 -32 -579 -50 -613 -62 -28 -9 -68 -35 -96 -63 -65 -61
-2019 -2612 -2051 -2676 -20 -40 -25 -64 -25 -125 1 -95 28 -159 93 -222 62
-59 1621 -1253 1679 -1285 94 -53 238 -38 327 35 55 44 2038 2625 2068 2691
40 88 38 112 -81 746 -124 664 -140 722 -216 813 -14 16 -25 33 -25 37 0 3 87
120 193 258 107 139 199 262 206 275 16 30 5 78 -22 97 -24 17 -64 19 -88 5z
m-573 -651 c25 -7 44 -17 42 -23 -2 -6 -50 -73 -107 -147 -103 -135 -105 -137
-135 -128 -89 26 -199 1 -270 -62 -128 -113 -134 -308 -13 -427 131 -128 344
-108 444 42 61 90 69 198 22 293 l-25 50 110 143 c109 141 110 142 127 121 39
-48 66 -158 159 -656 129 -683 126 -670 113 -705 -10 -26 -224 -307 -1595
-2094 -227 -297 -425 -548 -440 -559 -39 -29 -110 -34 -151 -9 -19 11 -399
299 -845 641 -720 553 -812 626 -826 662 -21 51 -20 77 2 119 25 50 1956 2567
2006 2616 50 49 28 45 416 75 151 11 372 29 490 39 258 21 415 24 476 9z
m-215 -464 c117 -61 73 -245 -58 -245 -75 0 -122 36 -138 108 -9 41 23 110 62
134 35 22 95 23 134 3z"/>
<path d="M2270 2967 c-14 -7 -31 -24 -38 -39 -13 -28 -31 35 333 -1171 34
-114 70 -216 80 -227 28 -31 88 -27 114 6 12 15 21 35 21 45 0 22 -395 1331
-410 1360 -10 17 -48 39 -68 39 -4 0 -18 -6 -32 -13z"/>
<path d="M2973 2536 c-128 -40 -204 -145 -205 -281 -1 -210 227 -354 415 -262
132 65 194 209 153 352 -24 80 -108 166 -186 189 -64 19 -120 19 -177 2z m146
-164 c65 -35 89 -118 51 -179 -27 -44 -64 -66 -114 -66 -75 0 -129 57 -128
136 1 46 22 81 65 107 40 25 82 25 126 2z"/>
<path d="M1860 2491 c-49 -15 -87 -40 -128 -85 -56 -61 -75 -107 -76 -191 -1
-92 29 -159 95 -219 145 -130 366 -87 456 88 36 69 38 179 5 247 -51 105 -151
169 -262 168 -36 0 -76 -4 -90 -8z m158 -171 c34 -21 62 -71 62 -111 0 -36
-32 -90 -64 -110 -65 -40 -158 -13 -190 55 -20 43 -20 69 1 113 32 69 123 94
191 53z"/>
</g>
</svg>
