<svg xmlns="http://www.w3.org/2000/svg" xmlns:xlink="http://www.w3.org/1999/xlink" version="1.1" x="0px" y="0px" viewBox="0 0 100 125" style="enable-background:new 0 0 100 100;" xml:space="preserve"><path d="M8.357,55.422c0.785,1.459,2.607,2.01,4.063,1.219L50,36.407l37.579,20.234c1.436,0.779,3.27,0.254,4.063-1.219  c0.785-1.459,0.237-3.278-1.222-4.063L80,45.748V30c0-1.657-1.342-3-3-3H65c-1.658,0-3,1.343-3,3v6.055l-10.579-5.696  c-0.885-0.478-1.957-0.478-2.842,0l-39,21C8.12,52.144,7.572,53.963,8.357,55.422z M68,33h6v9.517l-6-3.231V33z"/><path d="M23,57c-1.658,0-3,1.343-3,3v30c0,1.657,1.342,3,3,3c19.739,0,35.517,0,54,0c1.658,0,3-1.343,3-3V60c0-1.657-1.342-3-3-3  s-3,1.343-3,3v27H62V75c0-6.617-5.382-12-12-12s-12,5.383-12,12v12H26V60C26,58.343,24.658,57,23,57z M44,75c0-3.309,2.692-6,6-6  s6,2.691,6,6v12H44V75z"/><path d="M92,9c0,4.963-4.037,9-9,9h-6c-1.655,0-3,1.346-3,3c0,1.657-1.342,3-3,3s-3-1.343-3-3c0-4.963,4.037-9,9-9h6  c1.655,0,3-1.346,3-3c0-1.657,1.342-3,3-3S92,7.343,92,9z"/><text x="0" y="115" fill="#000000" font-size="5px" font-weight="bold" font-family="'Helvetica Neue', Helvetica, Arial-Unicode, Arial, Sans-serif">Created by Ayub Irawan</text><text x="0" y="120" fill="#000000" font-size="5px" font-weight="bold" font-family="'Helvetica Neue', Helvetica, Arial-Unicode, Arial, Sans-serif">from the Noun Project</text></svg>