<?xml version="1.0" standalone="no"?>
<!DOCTYPE svg PUBLIC "-//W3C//DTD SVG 20010904//EN"
 "http://www.w3.org/TR/2001/REC-SVG-20010904/DTD/svg10.dtd">
<svg version="1.0" xmlns="http://www.w3.org/2000/svg"
 width="512.000000pt" height="512.000000pt" viewBox="0 0 512.000000 512.000000"
 preserveAspectRatio="xMidYMid meet">

<g transform="translate(0.000000,512.000000) scale(0.100000,-0.100000)"
fill="#000000" stroke="none">
<path d="M3421 4843 c-88 -31 -161 -136 -161 -233 0 -132 118 -250 250 -250
60 0 130 30 175 75 188 188 -12 497 -264 408z m123 -199 c9 -8 16 -24 16 -34
0 -10 -7 -26 -16 -34 -8 -9 -24 -16 -34 -16 -10 0 -26 7 -34 16 -9 8 -16 24
-16 34 0 10 7 26 16 34 8 9 24 16 34 16 10 0 26 -7 34 -16z"/>
<path d="M1663 4742 c-251 -90 -272 -432 -35 -549 81 -40 183 -40 264 0 107
53 163 144 163 267 0 85 -21 142 -74 203 -72 81 -213 117 -318 79z m146 -196
c67 -35 65 -143 -4 -174 -51 -23 -107 -7 -131 39 -47 91 44 182 135 135z"/>
<path d="M821 4643 c-59 -21 -124 -87 -144 -148 -15 -42 -17 -102 -17 -441 l0
-392 -87 -4 c-141 -7 -227 -58 -280 -166 -36 -74 -39 -182 -7 -253 53 -114
144 -170 286 -177 l88 -4 0 -398 0 -398 -87 -4 c-99 -5 -157 -26 -216 -77 -92
-82 -121 -237 -64 -353 53 -108 139 -159 280 -166 l87 -4 0 -398 0 -398 -137
-4 c-127 -3 -143 -5 -195 -31 -107 -53 -163 -144 -163 -267 0 -123 56 -214
163 -267 l57 -28 2175 0 2175 0 57 28 c107 53 162 143 163 267 0 62 -5 85 -28
132 -32 64 -80 111 -146 142 -38 17 -71 21 -183 24 l-138 4 0 398 0 398 87 4
c99 5 157 26 216 77 92 82 121 237 64 353 -53 108 -139 159 -279 166 l-88 4 0
398 0 398 88 4 c140 7 226 58 279 166 23 47 28 70 28 132 0 177 -115 288 -307
298 l-88 4 0 392 c0 446 -2 458 -75 531 -98 98 -252 98 -350 0 -73 -73 -75
-84 -75 -532 l0 -393 -100 0 -100 0 0 160 c0 246 8 240 -290 240 l-210 0 0 60
c0 71 -15 107 -51 126 -37 19 -953 21 -994 2 -44 -20 -55 -55 -55 -178 l0
-110 -410 0 c-296 0 -416 -3 -435 -12 -44 -20 -55 -55 -55 -178 l0 -110 -50 0
-50 0 0 393 c0 448 -2 459 -75 532 -69 70 -169 91 -264 58z m123 -199 c14 -13
16 -64 16 -400 l0 -384 -50 0 -50 0 0 384 c0 336 2 387 16 400 8 9 24 16 34
16 10 0 26 -7 34 -16z m3300 0 c14 -13 16 -64 16 -400 l0 -384 -50 0 -50 0 0
384 c0 336 2 387 16 400 8 9 24 16 34 16 10 0 26 -7 34 -16z m-1184 -584 l0
-200 -350 0 -350 0 0 200 0 200 350 0 350 0 0 -200z m500 -100 l0 -100 -150 0
-150 0 0 100 0 100 150 0 150 0 0 -100z m-1400 -50 l0 -50 -350 0 -350 0 0 50
0 50 350 0 350 0 0 -50z m2445 -262 c29 -13 55 -55 55 -88 0 -33 -26 -75 -55
-88 -38 -17 -4052 -17 -4090 0 -69 31 -71 137 -4 174 34 19 4054 21 4094 2z
m-3645 -788 l0 -400 -50 0 -50 0 0 400 0 400 50 0 50 0 0 -400z m3000 0 l0
-400 -150 0 -150 0 0 210 c0 141 -4 218 -12 235 -26 57 21 55 -1087 55 -770 0
-1026 -3 -1046 -12 -50 -23 -55 -49 -55 -278 l0 -210 -150 0 -150 0 0 400 0
400 1400 0 1400 0 0 -400z m300 0 l0 -400 -50 0 -50 0 0 400 0 400 50 0 50 0
0 -400z m-2300 -250 l0 -150 -150 0 -150 0 0 150 0 150 150 0 150 0 0 -150z
m500 0 l0 -150 -150 0 -150 0 0 150 0 150 150 0 150 0 0 -150z m500 0 l0 -150
-150 0 -150 0 0 150 0 150 150 0 150 0 0 -150z m500 0 l0 -150 -150 0 -150 0
0 150 0 150 150 0 150 0 0 -150z m1145 -362 c29 -13 55 -55 55 -88 0 -33 -26
-75 -55 -88 -38 -17 -4052 -17 -4090 0 -69 31 -71 137 -4 174 34 19 4054 21
4094 2z m-3645 -788 l0 -400 -50 0 -50 0 0 400 0 400 50 0 50 0 0 -400z m3000
0 l0 -400 -150 0 -150 0 0 160 c0 246 8 240 -290 240 l-210 0 0 110 c0 63 -5
120 -12 135 -25 55 -23 55 -588 55 -565 0 -563 0 -588 -55 -7 -14 -12 -53 -12
-85 l0 -60 -210 0 c-141 0 -218 -4 -235 -12 -50 -23 -55 -49 -55 -278 l0 -210
-150 0 -150 0 0 400 0 400 1400 0 1400 0 0 -400z m300 0 l0 -400 -50 0 -50 0
0 400 0 400 50 0 50 0 0 -400z m-1800 -150 l0 -250 -150 0 -150 0 0 250 0 250
150 0 150 0 0 -250z m500 0 l0 -250 -150 0 -150 0 0 250 0 250 150 0 150 0 0
-250z m-1000 -100 l0 -150 -150 0 -150 0 0 150 0 150 150 0 150 0 0 -150z
m1500 -50 l0 -100 -150 0 -150 0 0 100 0 100 150 0 150 0 0 -100z m1245 -312
c29 -13 55 -55 55 -88 0 -33 -26 -75 -55 -88 -38 -17 -4252 -17 -4290 0 -69
31 -71 137 -4 174 34 19 4254 21 4294 2z"/>
</g>
</svg>
